<svg xmlns="http://www.w3.org/2000/svg" width="93" height="93" viewBox="0 0 93 93">
  <g id="Grupo_15" data-name="Grupo 15" transform="translate(-339 372)">
    <g id="Grupo_11" data-name="Grupo 11" transform="translate(149 -830)">
      <circle id="Elipse_2" data-name="Elipse 2" cx="46.5" cy="46.5" r="46.5" transform="translate(190 458)" fill="#37ff80"/>
    </g>
    <path id="Icon_awesome-sticky-note" data-name="Icon awesome-sticky-note" d="M34.821,34.393H50V4.929A2.672,2.672,0,0,0,47.321,2.25H2.679A2.672,2.672,0,0,0,0,4.929V49.571A2.672,2.672,0,0,0,2.679,52.25H32.143V37.071A2.686,2.686,0,0,1,34.821,34.393Zm14.4,6.138L38.281,51.469a2.677,2.677,0,0,1-1.9.781h-.67V37.964H50v.681A2.67,2.67,0,0,1,49.219,40.531Z" transform="translate(360.5 -352.75)" fill="#fff"/>
  </g>
</svg>
