<svg xmlns="http://www.w3.org/2000/svg" width="93" height="93" viewBox="0 0 93 93">
  <g id="Grupo_14" data-name="Grupo 14" transform="translate(-226 372)">
    <g id="Grupo_11" data-name="Grupo 11" transform="translate(36 -830)">
      <circle id="Elipse_2" data-name="Elipse 2" cx="46.5" cy="46.5" r="46.5" transform="translate(190 458)" fill="#37ff80"/>
    </g>
    <path id="Icon_map-food" data-name="Icon map-food" d="M50.61,14.524l-4.1,32.131H32.666L28.584,14.363h16.9L48.826,2.825,50.72,3.4,47.515,14.5l3.095.024ZM26.626,33.113s.518-4.167-6.661-4.167H8.531c-7.169,0-6.661,4.167-6.661,4.167ZM1.87,42.488s-.507,4.167,6.661,4.167H19.966c7.179,0,6.661-4.167,6.661-4.167H1.87ZM25.552,40.4a2.4,2.4,0,0,0,2.124-2.6A2.393,2.393,0,0,0,25.552,35.2H2.845A2.4,2.4,0,0,0,.72,37.8a2.4,2.4,0,0,0,2.125,2.6H25.552Z" transform="translate(246.78 -353.325)" fill="#fff"/>
  </g>
</svg>
