<svg xmlns="http://www.w3.org/2000/svg" width="129.928" height="70" viewBox="0 0 129.928 70">
  <g id="Grupo_23" data-name="Grupo 23" transform="translate(-10 229)">
    <g id="Grupo_22" data-name="Grupo 22" transform="translate(0 -244)">
      <text id="ToD" transform="translate(10 72)" fill="#37ff80" font-size="53" font-family="SegoeUI-Bold, Segoe UI" font-weight="700"><tspan x="0" y="0">ToD</tspan></text>
      <path id="Icon_awesome-check-circle" data-name="Icon awesome-check-circle" d="M29.49,15.082A14.464,14.464,0,1,1,15.026.563,14.492,14.492,0,0,1,29.49,15.082ZM13.353,22.77,24.085,12a.939.939,0,0,0,0-1.325l-1.32-1.325a.931.931,0,0,0-1.32,0l-8.752,8.785-4.086-4.1a.931.931,0,0,0-1.32,0l-1.32,1.325a.939.939,0,0,0,0,1.325l6.065,6.089a.931.931,0,0,0,1.32,0Z" transform="translate(110.438 41.918)" fill="#37ff80"/>
    </g>
  </g>
</svg>
