<svg xmlns="http://www.w3.org/2000/svg" width="93" height="93" viewBox="0 0 93 93">
  <g id="Grupo_18" data-name="Grupo 18" transform="translate(-678 372)">
    <g id="Grupo_11" data-name="Grupo 11" transform="translate(488 -830)">
      <circle id="Elipse_2" data-name="Elipse 2" cx="46.5" cy="46.5" r="46.5" transform="translate(190 458)" fill="#37ff80"/>
    </g>
    <g id="Icon_map-grocery-or-supermarket" data-name="Icon map-grocery-or-supermarket" transform="translate(699.5 -349.493)">
      <path id="Caminho_4" data-name="Caminho 4" d="M34.56,30.24a2.88,2.88,0,1,1-2.88-2.88,2.88,2.88,0,0,1,2.88,2.88Z" transform="translate(14.72 12.016)" fill="#fff"/>
      <path id="Caminho_5" data-name="Caminho 5" d="M13.68,30.24a2.88,2.88,0,1,1-2.88-2.88,2.88,2.88,0,0,1,2.88,2.88Z" transform="translate(3.949 12.016)" fill="#fff"/>
      <path id="Caminho_6" data-name="Caminho 6" d="M47.959,34.226H16.093l.681-1.2a2.381,2.381,0,0,0,.238-1.72l-.664-2.776,29.574-1.668a2.288,2.288,0,0,0,2.038-2.329V9.858a2.14,2.14,0,0,0-2.041-2.215H11.346l-.4-1.665A2.078,2.078,0,0,0,8.971,4.32H2.041A2.133,2.133,0,0,0,0,6.535,2.133,2.133,0,0,0,2.041,8.75H7.394l5.449,22.756L10.7,35.278a2.377,2.377,0,0,0-.044,2.242,2.018,2.018,0,0,0,1.781,1.136H47.959a2.223,2.223,0,0,0,0-4.43Z" transform="translate(0 0)" fill="#fff"/>
    </g>
  </g>
</svg>
