<svg xmlns="http://www.w3.org/2000/svg" width="93" height="93" viewBox="0 0 93 93">
  <g id="Grupo_17" data-name="Grupo 17" transform="translate(-565 372)">
    <g id="Grupo_11" data-name="Grupo 11" transform="translate(375 -830)">
      <circle id="Elipse_2" data-name="Elipse 2" cx="46.5" cy="46.5" r="46.5" transform="translate(190 458)" fill="#37ff80"/>
    </g>
    <g id="Icon_ionic-ios-people" data-name="Icon ionic-ios-people" transform="translate(584.285 -349.496)">
      <path id="Caminho_1" data-name="Caminho 1" d="M39.949,32.748c-1.529-.445-4.028-.468-5.134-.813a8.077,8.077,0,0,1-2.376-.9c-.4-.39-.4-3.174-.4-3.174A5.347,5.347,0,0,0,33.4,26.3a14.44,14.44,0,0,0,.655-3.062s.9.312,1.256-1.158c.3-1.269.874-1.938.724-2.873s-.792-.713-.792-.713.792-.947.792-4.165c0-3.318-3.072-6.581-8.82-6.581s-8.834,3.274-8.834,6.581c0,3.218.778,4.165.778,4.165s-.642-.223-.792.713.41,1.6.724,2.873c.355,1.481,1.256,1.158,1.256,1.158A14.579,14.579,0,0,0,21,26.3,5.346,5.346,0,0,0,22.35,27.86s0,2.784-.4,3.174a7.786,7.786,0,0,1-2.376.891c-1.092.345-3.591.39-5.134.835s-6.253,2.472-6.253,7.483h38C46.2,35.221,41.479,33.194,39.949,32.748Z" fill="#fff"/>
      <path id="Caminho_2" data-name="Caminho 2" d="M9.844,27.995a3.229,3.229,0,0,0,2.348-1.233c-1.09-3.116-.5-6.749-.724-10.144s-1.245-5.41-3.284-5.41H8.156c-1.969,0-3.03,2.015-3.255,5.41s.4,7.425-.717,10.144a2.877,2.877,0,0,0,2.355,1.1h0a12.562,12.562,0,0,1-.07,2.228,1.66,1.66,0,0,1-.844.729,11.155,11.155,0,0,0-1.821.955c-.548.358-1.589,2.281-1.589,4.933H7.861a8.769,8.769,0,0,1,2.25-3.951,2.945,2.945,0,0,1,1.737-.69.863.863,0,0,0-.612-1.1s-1.209-.57-1.35-.888A11.218,11.218,0,0,1,9.844,27.995Z" transform="translate(0 0)" fill="#fff"/>
      <path id="Caminho_3" data-name="Caminho 3" d="M26.156,27.995a3.229,3.229,0,0,1-2.348-1.233c1.09-3.116.5-6.749.724-10.144s1.245-5.41,3.284-5.41h.028c1.969,0,3.03,2.015,3.255,5.41s-.4,7.425.717,10.144a2.877,2.877,0,0,1-2.355,1.1h0a12.562,12.562,0,0,0,.07,2.228,1.66,1.66,0,0,0,.844.729,11.155,11.155,0,0,1,1.821.955c.548.358,1.589,2.281,1.589,4.933H28.139a8.769,8.769,0,0,0-2.25-3.951,2.945,2.945,0,0,0-1.737-.69.863.863,0,0,1,.612-1.1s1.209-.57,1.35-.888A11.218,11.218,0,0,0,26.156,27.995Z" transform="translate(18.43 0)" fill="#fff"/>
    </g>
  </g>
</svg>
