<svg xmlns="http://www.w3.org/2000/svg" width="93" height="93" viewBox="0 0 93 93">
  <g id="Grupo_12" data-name="Grupo 12" transform="translate(0 372)">
    <g id="Grupo_11" data-name="Grupo 11" transform="translate(-190 -830)">
      <circle id="Elipse_2" data-name="Elipse 2" cx="46.5" cy="46.5" r="46.5" transform="translate(190 458)" fill="#37ff80"/>
      <path id="Icon_awesome-edit" data-name="Icon awesome-edit" d="M37.683,8.759l8.443,9.5a1.123,1.123,0,0,1,0,1.453l-20.442,23L17,43.8a1.943,1.943,0,0,1-2.012-2.264l.964-9.774,20.442-23A.845.845,0,0,1,37.683,8.759ZM52.846,6.347l-4.568-5.14a3.379,3.379,0,0,0-5.167,0L39.8,4.936a1.123,1.123,0,0,0,0,1.453l8.443,9.5a.845.845,0,0,0,1.292,0l3.313-3.728a4.493,4.493,0,0,0,0-5.814Zm-16.9,30.111V47.18H5.99v-33.7H27.5a1.089,1.089,0,0,0,.8-.369L32.039,8.9a1.289,1.289,0,0,0-.8-2.159H4.493A4.8,4.8,0,0,0,0,11.792V48.865A4.8,4.8,0,0,0,4.493,53.92H37.44a4.8,4.8,0,0,0,4.493-5.055V32.245a1.115,1.115,0,0,0-1.919-.9L36.27,35.563A1.383,1.383,0,0,0,35.942,36.458Z" transform="translate(214 477.536)" fill="#fff"/>
    </g>
  </g>
</svg>
