<svg xmlns="http://www.w3.org/2000/svg" width="93" height="93" viewBox="0 0 93 93">
  <g id="Grupo_16" data-name="Grupo 16" transform="translate(-452 372)">
    <g id="Grupo_11" data-name="Grupo 11" transform="translate(262 -830)">
      <circle id="Elipse_2" data-name="Elipse 2" cx="46.5" cy="46.5" r="46.5" transform="translate(190 458)" fill="#37ff80"/>
    </g>
    <path id="Icon_material-work" data-name="Icon material-work" d="M48,13H38V8a4.983,4.983,0,0,0-5-5H23a4.983,4.983,0,0,0-5,5v5H8a4.962,4.962,0,0,0-4.975,5L3,45.5a4.983,4.983,0,0,0,5,5H48a4.983,4.983,0,0,0,5-5V18A4.983,4.983,0,0,0,48,13ZM33,13H23V8H33Z" transform="translate(470.5 -352.25)" fill="#fff"/>
  </g>
</svg>
